<?xml version="1.0" encoding="utf-8"?>
<?xml-stylesheet type="text/xsl" href="rss1.xsl"?>
<rss version="2.0" xmlns:atom="http://www.w3.org/2005/Atom" xmlns:content="http://purl.org/rss/1.0/modules/content/" xmlns:dc="http://purl.org/dc/elements/1.1/" xmlns:media="http://search.yahoo.com/mrss/">
<channel>
 <title>Getty</title>
 <link>http://www.gettyimg.com/</link>
 <atom:link href="http://www.gettyimg.com/" rel="self" type="application/rss+xml" />

 
                <item>
                <title><![CDATA[【TIDAL】WEB-RiP - PRISCILLA - ELEMENTO X (TIDAL-1080p-LK72)]]></title>
                <link><![CDATA[https://sharemania.us/threads/priscilla-elemento-x-tidal-1080p-lk72.235529/]]></link>
                <description><![CDATA[<article>
<blockquote class="messageText SelectQuoteContainer ugc baseHtml">
<div style="text-align: center"><img src="https://i.imgur.com/ATgUqCB.jpg" class="bbCodeImage LbImage" alt="[​IMG]" data-url="https://i.imgur.com/ATgUqCB.jpg" style=""> <br>
<div class="bbCodeBlock bbCodeVfcHH HiddenContent">
<div class="attribution type">Hidden Content:</div>
<blockquote>You must reply before you can see the hidden data contained here.</blockquote>
</div></div>
<div class="messageTextEndMarker">&nbsp;</div>
</blockquote>
</article>]]></description>
                <author><![CDATA[luke72]]></author>
                </item>

                
                <item>
                <title><![CDATA[【TIDAL】WEB-RiP - Whitney Houston - How Will I Know (TIDAL-1080p-LK72)]]></title>
                <link><![CDATA[https://sharemania.us/threads/whitney-houston-how-will-i-know-tidal-1080p-lk72.235526/]]></link>
                <description><![CDATA[<article>
<blockquote class="messageText SelectQuoteContainer ugc baseHtml">
<div style="text-align: center"><img src="https://i.imgur.com/q1Wx8bF.jpg" class="bbCodeImage LbImage" alt="[​IMG]" data-url="https://i.imgur.com/q1Wx8bF.jpg" style=""> <br>
<div class="bbCodeBlock bbCodeVfcHH HiddenContent">
<div class="attribution type">Hidden Content:</div>
<blockquote>You must reply before you can see the hidden data contained here.</blockquote>
</div></div>
<div class="messageTextEndMarker">&nbsp;</div>
</blockquote>
</article>]]></description>
                <author><![CDATA[luke72]]></author>
                </item>

                
                <item>
                <title><![CDATA[【TIDAL】WEB-RiP - Alicia Keys - Lifeline (TIDAL-1080p-LK72)]]></title>
                <link><![CDATA[https://sharemania.us/threads/alicia-keys-lifeline-tidal-1080p-lk72.235527/]]></link>
                <description><![CDATA[<article>
<blockquote class="messageText SelectQuoteContainer ugc baseHtml">
<div style="text-align: center"><img src="https://i.imgur.com/KuJfm1w.jpg" class="bbCodeImage LbImage" alt="[​IMG]" data-url="https://i.imgur.com/KuJfm1w.jpg" style=""> <br>
<div class="bbCodeBlock bbCodeVfcHH HiddenContent">
<div class="attribution type">Hidden Content:</div>
<blockquote>You must reply before you can see the hidden data contained here.</blockquote>
</div></div>
<div class="messageTextEndMarker">&nbsp;</div>
</blockquote>
</article>]]></description>
                <author><![CDATA[luke72]]></author>
                </item>

                
                <item>
                <title><![CDATA[【Singles (lossless)】FLAC - Vanity by Lady Gaga - FLAC]]></title>
                <link><![CDATA[https://sharemania.us/threads/vanity-by-lady-gaga-flac.235530/]]></link>
                <description><![CDATA[<article>
<blockquote class="messageText SelectQuoteContainer ugc baseHtml">
Rhapsody/Napster track. Enjoy!<br>
<br>
<div class="bbCodeBlock bbCodeVfcHH HiddenContent">
<div class="attribution type">Hidden Content:</div>
<blockquote>You must either reply or click 'Like' to see the hidden information contained here.</blockquote>
</div>
<div class="messageTextEndMarker">&nbsp;</div>
</blockquote>
</article>]]></description>
                <author><![CDATA[MusicFanatic94]]></author>
                </item>

                
                <item>
                <title><![CDATA[【Cinema Center】SERIES - Marvel's Spidey and His Amazing Friends - Season 2 - 1080p Disney+ WEB-DL DDP5.1 H.264-LAZY]]></title>
                <link><![CDATA[https://sharemania.us/threads/marvels-spidey-and-his-amazing-friends-season-2-1080p-disney-web-dl-ddp5-1-h-264-lazy.235528/]]></link>
                <description><![CDATA[<article>
<blockquote class="messageText SelectQuoteContainer ugc baseHtml">
Marvel's Spidey and His Amazing Friends:<img src="https://i.imgur.com/zIXOYps.jpg" class="bbCodeImage LbImage" alt="[​IMG]" data-url="https://i.imgur.com/zIXOYps.jpg" style=""><br>
<br>
<div class="bbCodeBlock bbCodeQuote">
<aside>
<blockquote class="quoteContainer"><div class="quote"><i><b>Synopsis:</b></i><br>
Follow Peter Parker, Miles Morales and Gwen Stacy, as they form Team Spidey and embark on heroic adventures to protect their community.</div><div class="quoteExpand">Click to expand...</div></blockquote>
</aside>
</div>
<div class="ToggleTriggerAnchor bbCodeSpoilerContainer">
<button type="button" class="button bbCodeSpoilerButton ToggleTrigger Tooltip JsOnly" data-target="> .SpoilerTarget"><span>Spoiler: <span class="SpoilerTitle">MediaInfo</span></span></button>
<div class="SpoilerTarget bbCodeSpoilerText">General<br>
Unique ID : 336445501416803521837273892257365671779 (0xFD1D0BECE21613E0A5A3E1CD3396BF63)<br>
Complete name : Marvels.Spidey.and.His.Amazing.Friends.S02E01E02.Electros.Gotta.Glow.-.Black.Cat.Chaos.1080p.DSNP.WEB-DL.DDP5.1.H.264-LAZY.mkv<br>
Format : Matroska<br>
Format version : Version 4<br>
File size : 1.29 GiB<br>
Duration : 24 min 5 s<br>
Overall bit rate mode : Variable<br>
Overall bit rate : 7 684 kb/s<br>
Frame rate : 23.976 FPS<br>
Encoded date : 2024-01-09 18:40:40 UTC<br>
Writing application : mkvmerge v82.0 ('I'm The President') 64-bit<br>
Writing library : libebml v1.4.5 + libmatroska v1.7.1<br>
<br>
Video<br>
ID : 1<br>
Format : AVC<br>
Format/Info : Advanced Video Codec<br>
Format profile : High@L4<br>
Format settings : CABAC / 4 Ref Frames<br>
Format settings, CABAC : Yes<br>
Format settings, Reference frames : 4 frames<br>
Codec ID : V_MPEG4/ISO/AVC<br>
Duration : 24 min 5 s<br>
Bit rate mode : Variable<br>
Bit rate : 7 423 kb/s<br>
Maximum bit rate : 12.7 Mb/s<br>
Width : 1 920 pixels<br>
Height : 1 080 pixels<br>
Display aspect ratio : 16:9<br>
Frame rate mode : Constant<br>
Frame rate : 23.976 (24000/1001) FPS<br>
Color space : YUV<br>
Chroma subsampling : 4:2:0<br>
Bit depth : 8 bits<br>
Scan type : Progressive<br>
Bits/(Pixel*Frame) : 0.149<br>
Stream size : 1.25 GiB (97%)<br>
Default : Yes<br>
Forced : No<br>
Color range : Limited<br>
Color primaries : BT.709<br>
Transfer characteristics : BT.709<br>
Matrix coefficients : BT.709<br>
<br>
Audio<br>
ID : 2<br>
Format : E-AC-3<br>
Format/Info : Enhanced AC-3<br>
Commercial name : Dolby Digital Plus<br>
Codec ID : A_EAC3<br>
Duration : 24 min 5 s<br>
Bit rate mode : Constant<br>
Bit rate : 256 kb/s<br>
Channel(s) : 6 channels<br>
Channel layout : L R C LFE Ls Rs<br>
Sampling rate : 48.0 kHz<br>
Frame rate : 31.250 FPS (1536 SPF)<br>
Compression mode : Lossy<br>
Stream size : 44.1 MiB (3%)<br>
Language : English<br>
Service kind : Complete Main<br>
Default : Yes<br>
Forced : No<br>
<br>
Text #1<br>
ID : 3<br>
Format : UTF-8<br>
Codec ID : S_TEXT/UTF8<br>
Codec ID/Info : UTF-8 Plain Text<br>
Duration : 23 min 35 s<br>
Bit rate : 96 b/s<br>
Frame rate : 0.345 FPS<br>
Count of elements : 489<br>
Stream size : 16.7 KiB (0%)<br>
Title : SDH<br>
Language : English<br>
Default : No<br>
Forced : No<br>
<br>
Text #2<br>
ID : 4<br>
Format : UTF-8<br>
Codec ID : S_TEXT/UTF8<br>
Codec ID/Info : UTF-8 Plain Text<br>
Duration : 22 min 52 s<br>
Bit rate : 74 b/s<br>
Frame rate : 0.272 FPS<br>
Count of elements : 374<br>
Stream size : 12.4 KiB (0%)<br>
Language : Czech<br>
Default : No<br>
Forced : No<br>
<br>
Text #3<br>
ID : 5<br>
Format : UTF-8<br>
Codec ID : S_TEXT/UTF8<br>
Codec ID/Info : UTF-8 Plain Text<br>
Duration : 22 min 33 s<br>
Bit rate : 65 b/s<br>
Frame rate : 0.227 FPS<br>
Count of elements : 307<br>
Stream size : 10.9 KiB (0%)<br>
Language : Danish<br>
Default : No<br>
Forced : No<br>
<br>
Text #4<br>
ID : 6<br>
Format : UTF-8<br>
Codec ID : S_TEXT/UTF8<br>
Codec ID/Info : UTF-8 Plain Text<br>
Duration : 22 min 30 s<br>
Bit rate : 75 b/s<br>
Frame rate : 0.231 FPS<br>
Count of elements : 312<br>
Stream size : 12.5 KiB (0%)<br>
Language : German<br>
Default : No<br>
Forced : No<br>
<br>
Text #5<br>
ID : 7<br>
Format : UTF-8<br>
Codec ID : S_TEXT/UTF8<br>
Codec ID/Info : UTF-8 Plain Text<br>
Duration : 22 min 33 s<br>
Bit rate : 121 b/s<br>
Frame rate : 0.231 FPS<br>
Count of elements : 313<br>
Stream size : 20.1 KiB (0%)<br>
Language : Greek<br>
Default : No<br>
Forced : No<br>
<br>
Text #6<br>
ID : 8<br>
Format : UTF-8<br>
Codec ID : S_TEXT/UTF8<br>
Codec ID/Info : UTF-8 Plain Text<br>
Duration : 23 min 27 s<br>
Bit rate : 77 b/s<br>
Frame rate : 0.361 FPS<br>
Count of elements : 508<br>
Stream size : 13.3 KiB (0%)<br>
Title : Latin American<br>
Language : Spanish<br>
Default : No<br>
Forced : No<br>
<br>
Text #7<br>
ID : 9<br>
Format : UTF-8<br>
Codec ID : S_TEXT/UTF8<br>
Codec ID/Info : UTF-8 Plain Text<br>
Duration : 22 min 33 s<br>
Bit rate : 65 b/s<br>
Frame rate : 0.232 FPS<br>
Count of elements : 314<br>
Stream size : 10.8 KiB (0%)<br>
Title : European<br>
Language : Spanish<br>
Default : No<br>
Forced : No<br>
<br>
Text #8<br>
ID : 10<br>
Format : UTF-8<br>
Codec ID : S_TEXT/UTF8<br>
Codec ID/Info : UTF-8 Plain Text<br>
Duration : 22 min 31 s<br>
Bit rate : 65 b/s<br>
Frame rate : 0.219 FPS<br>
Count of elements : 296<br>
Stream size : 10.8 KiB (0%)<br>
Language : Finnish<br>
Default : No<br>
Forced : No<br>
<br>
Text #9<br>
ID : 11<br>
Format : UTF-8<br>
Codec ID : S_TEXT/UTF8<br>
Codec ID/Info : UTF-8 Plain Text<br>
Duration : 23 min 50 s<br>
Bit rate : 73 b/s<br>
Frame rate : 0.326 FPS<br>
Count of elements : 466<br>
Stream size : 12.9 KiB (0%)<br>
Language : French<br>
Default : No<br>
Forced : No<br>
<br>
Text #10<br>
ID : 12<br>
Format : UTF-8<br>
Codec ID : S_TEXT/UTF8<br>
Codec ID/Info : UTF-8 Plain Text<br>
Duration : 23 min 30 s<br>
Bit rate : 98 b/s<br>
Frame rate : 0.355 FPS<br>
Count of elements : 500<br>
Stream size : 17.0 KiB (0%)<br>
Title : SDH<br>
Language : French<br>
Default : No<br>
Forced : No<br>
<br>
Text #11<br>
ID : 13<br>
Format : UTF-8<br>
Codec ID : S_TEXT/UTF8<br>
Codec ID/Info : UTF-8 Plain Text<br>
Duration : 22 min 52 s<br>
Bit rate : 72 b/s<br>
Frame rate : 0.283 FPS<br>
Count of elements : 389<br>
Stream size : 12.1 KiB (0%)<br>
Language : Hungarian<br>
Default : No<br>
Forced : No<br>
<br>
Text #12<br>
ID : 14<br>
Format : UTF-8<br>
Codec ID : S_TEXT/UTF8<br>
Codec ID/Info : UTF-8 Plain Text<br>
Duration : 22 min 33 s<br>
Bit rate : 75 b/s<br>
Frame rate : 0.242 FPS<br>
Count of elements : 328<br>
Stream size : 12.4 KiB (0%)<br>
Language : Italian<br>
Default : No<br>
Forced : No<br>
<br>
Text #13<br>
ID : 15<br>
Format : UTF-8<br>
Codec ID : S_TEXT/UTF8<br>
Codec ID/Info : UTF-8 Plain Text<br>
Duration : 23 min 52 s<br>
Bit rate : 81 b/s<br>
Frame rate : 0.307 FPS<br>
Count of elements : 440<br>
Stream size : 14.3 KiB (0%)<br>
Language : Japanese<br>
Default : No<br>
Forced : No<br>
<br>
Text #14<br>
ID : 16<br>
Format : UTF-8<br>
Codec ID : S_TEXT/UTF8<br>
Codec ID/Info : UTF-8 Plain Text<br>
Duration : 23 min 52 s<br>
Bit rate : 84 b/s<br>
Frame rate : 0.283 FPS<br>
Count of elements : 406<br>
Stream size : 14.8 KiB (0%)<br>
Language : Korean<br>
Default : No<br>
Forced : No<br>
<br>
Text #15<br>
ID : 17<br>
Format : UTF-8<br>
Codec ID : S_TEXT/UTF8<br>
Codec ID/Info : UTF-8 Plain Text<br>
Duration : 22 min 54 s<br>
Bit rate : 68 b/s<br>
Frame rate : 0.281 FPS<br>
Count of elements : 387<br>
Stream size : 11.5 KiB (0%)<br>
Language : Dutch<br>
Default : No<br>
Forced : No<br>
<br>
Text #16<br>
ID : 18<br>
Format : UTF-8<br>
Codec ID : S_TEXT/UTF8<br>
Codec ID/Info : UTF-8 Plain Text<br>
Duration : 22 min 54 s<br>
Bit rate : 72 b/s<br>
Frame rate : 0.284 FPS<br>
Count of elements : 391<br>
Stream size : 12.2 KiB (0%)<br>
Language : Norwegian<br>
Default : No<br>
Forced : No<br>
<br>
Text #17<br>
ID : 19<br>
Format : UTF-8<br>
Codec ID : S_TEXT/UTF8<br>
Codec ID/Info : UTF-8 Plain Text<br>
Duration : 22 min 33 s<br>
Bit rate : 62 b/s<br>
Frame rate : 0.231 FPS<br>
Count of elements : 312<br>
Stream size : 10.3 KiB (0%)<br>
Language : Polish<br>
Default : No<br>
Forced : No<br>
<br>
Text #18<br>
ID : 20<br>
Format : UTF-8<br>
Codec ID : S_TEXT/UTF8<br>
Codec ID/Info : UTF-8 Plain Text<br>
Duration : 23 min 27 s<br>
Bit rate : 83 b/s<br>
Frame rate : 0.346 FPS<br>
Count of elements : 487<br>
Stream size : 14.3 KiB (0%)<br>
Title : Brazilian<br>
Language : Portuguese<br>
Default : No<br>
Forced : No<br>
<br>
Text #19<br>
ID : 21<br>
Format : UTF-8<br>
Codec ID : S_TEXT/UTF8<br>
Codec ID/Info : UTF-8 Plain Text<br>
Duration : 22 min 33 s<br>
Bit rate : 67 b/s<br>
Frame rate : 0.232 FPS<br>
Count of elements : 314<br>
Stream size : 11.1 KiB (0%)<br>
Title : European<br>
Language : Portuguese<br>
Default : No<br>
Forced : No<br>
<br>
Text #20<br>
ID : 22<br>
Format : UTF-8<br>
Codec ID : S_TEXT/UTF8<br>
Codec ID/Info : UTF-8 Plain Text<br>
Duration : 22 min 30 s<br>
Bit rate : 72 b/s<br>
Frame rate : 0.230 FPS<br>
Count of elements : 310<br>
Stream size : 11.9 KiB (0%)<br>
Language : Romanian<br>
Default : No<br>
Forced : No<br>
<br>
Text #21<br>
ID : 23<br>
Format : UTF-8<br>
Codec ID : S_TEXT/UTF8<br>
Codec ID/Info : UTF-8 Plain Text<br>
Duration : 22 min 33 s<br>
Bit rate : 69 b/s<br>
Frame rate : 0.232 FPS<br>
Count of elements : 314<br>
Stream size : 11.4 KiB (0%)<br>
Language : Swedish<br>
Default : No<br>
Forced : No<br>
<br>
Text #22<br>
ID : 24<br>
Format : UTF-8<br>
Codec ID : S_TEXT/UTF8<br>
Codec ID/Info : UTF-8 Plain Text<br>
Duration : 22 min 33 s<br>
Bit rate : 74 b/s<br>
Frame rate : 0.232 FPS<br>
Count of elements : 314<br>
Stream size : 12.4 KiB (0%)<br>
Language : Turkish<br>
Default : No<br>
Forced : No<br>
<br>
Text #23<br>
ID : 25<br>
Format : UTF-8<br>
Codec ID : S_TEXT/UTF8<br>
Codec ID/Info : UTF-8 Plain Text<br>
Duration : 23 min 52 s<br>
Bit rate : 71 b/s<br>
Frame rate : 0.281 FPS<br>
Count of elements : 402<br>
Stream size : 12.5 KiB (0%)<br>
Title : Traditional, Hong Kong<br>
Language : Chinese<br>
Default : No<br>
Forced : No<br>
<br>
Text #24<br>
ID : 26<br>
Format : UTF-8<br>
Codec ID : S_TEXT/UTF8<br>
Codec ID/Info : UTF-8 Plain Text<br>
Duration : 23 min 52 s<br>
Bit rate : 65 b/s<br>
Frame rate : 0.283 FPS<br>
Count of elements : 405<br>
Stream size : 11.5 KiB (0%)<br>
Title : Simplified<br>
Language : Chinese<br>
Default : No<br>
Forced : No<br>
<br>
Text #25<br>
ID : 27<br>
Format : UTF-8<br>
Codec ID : S_TEXT/UTF8<br>
Codec ID/Info : UTF-8 Plain Text<br>
Duration : 23 min 52 s<br>
Bit rate : 74 b/s<br>
Frame rate : 0.283 FPS<br>
Count of elements : 405<br>
Stream size : 13.1 KiB (0%)<br>
Title : Traditional<br>
Language : Chinese<br>
Default : No<br>
Forced : No<br>
<br>
Menu<br>
00:00:01.001 : en:Intro<br>
00:01:03.021 : en:Scene 1<br>
00:12:18.989 : en:Scene 2<br>
00:23:34.414 : en:Scene 3 / en:Credits</div>
</div><br>
Screenshots:<br>
<img src="https://i.imgur.com/pB4tc3r.jpg" class="bbCodeImage LbImage" alt="[​IMG]" data-url="https://i.imgur.com/pB4tc3r.jpg" style=""> <br>
<div class="bbCodeBlock bbCodeVfcHH HiddenContent">
<div class="attribution type">Hidden Content:</div>
<blockquote>You must either reply or click 'Like' to see the hidden information contained here.</blockquote>
</div>
<div class="messageTextEndMarker">&nbsp;</div>
</blockquote>
</article>]]></description>
                <author><![CDATA[LazyRips]]></author>
                </item>

                </channel></rss>